<?xml version="1.0" encoding="utf-8"?>

<!DOCTYPE svg PUBLIC "-//W3C//DTD SVG 1.1//EN" "http://www.w3.org/Graphics/SVG/1.1/DTD/svg11.dtd">
<!-- Uploaded to: SVG Repo, www.svgrepo.com, Generator: SVG Repo Mixer Tools -->
<svg height="800px" width="800px" version="1.1" id="_x32_" xmlns="http://www.w3.org/2000/svg" xmlns:xlink="http://www.w3.org/1999/xlink" 
	 viewBox="0 0 512 512"  xml:space="preserve">
<style type="text/css">
	.st0{fill:#000000;}
</style>
<g>
	<path class="st0" d="M508.813,241.927l-50.58-142.975L0,261.047l53.774,152L512,250.952L508.813,241.927z M65.443,388.588
		L24.459,272.717l422.097-149.306l40.999,115.872L65.443,388.588z"/>
	<path class="st0" d="M104.332,312.595c1.474-3.331,1.654-7.486,1.589-9.48c-0.072-2.002-0.52-4.14-1.33-6.416
		c-0.946-2.703-2.254-5.08-3.923-7.161c-1.669-2.074-3.62-3.707-5.86-4.914c-2.233-1.185-4.682-1.915-7.356-2.138
		c-2.674-0.239-5.462,0.152-8.36,1.177l-22.408,7.934l22.638,64.013l11.171-3.945l-9.026-25.536l9.668-3.425l18.556,22.168
		l12.948-4.581l-20.896-23.672C102.627,315.702,103.646,314.141,104.332,312.595z M93.378,307.545
		c-0.918,2.08-2.623,3.555-5.072,4.422l-10.528,3.736l-5.983-16.908l10.528-3.728c2.464-0.867,4.711-0.788,6.734,0.246
		c2.024,1.048,3.483,2.818,4.379,5.339C94.324,303.173,94.303,305.471,93.378,307.545z"/>
	<polygon class="st0" points="139.102,321.917 133.603,306.367 156.184,298.375 152.239,287.233 129.658,295.217 124.348,280.203 
		150.859,270.823 146.92,259.674 109.231,273.005 131.876,337.025 169.566,323.694 165.613,312.537 	"/>
	<path class="st0" d="M186.293,245.75l-11.17,3.953l15.015,42.437c1.315,3.714,1.467,6.756,0.469,9.133
		c-0.996,2.377-2.861,4.047-5.592,5.015c-1.879,0.664-3.454,0.838-4.748,0.513c-1.286-0.318-2.565-0.817-3.837-1.518l-7.76,7.182
		c3.475,3.844,9.061,6.163,11.691,6.344c2.63,0.188,5.492-0.281,8.599-1.373c2.616-0.925,4.993-2.29,7.102-4.083
		c2.103-1.791,3.779-3.916,5.022-6.373c1.242-2.456,1.929-5.231,2.067-8.316c0.152-3.093-0.405-6.402-1.663-9.943L186.293,245.75z"
		/>
	<polygon class="st0" points="228.78,290.203 223.275,274.653 245.848,266.661 241.91,255.505 219.337,263.503 214.018,248.482 
		240.537,239.103 236.599,227.953 198.91,241.292 221.555,305.304 259.237,291.966 255.292,280.824 	"/>
	<path class="st0" d="M292.049,258.207c0.347,2.855,0.05,5.39-0.867,7.645c-0.932,2.247-2.782,3.874-5.564,4.849
		c-1.561,0.556-3.035,0.744-4.459,0.57c-1.416-0.173-2.71-0.621-3.873-1.365c-0.766-0.47-1.474-1.062-2.117-1.77
		c-0.644-0.73-1.308-1.706-1.995-2.94c-0.679-1.251-1.416-2.862-2.247-4.82c-0.816-1.98-1.763-4.488-2.847-7.543
		c-1.083-3.064-1.921-5.615-2.529-7.66c-0.599-2.045-1.026-3.765-1.279-5.16c-0.253-1.387-0.347-2.564-0.296-3.533
		c0.05-0.954,0.223-1.864,0.52-2.717c0.448-1.301,1.17-2.471,2.167-3.49c0.99-1.025,2.254-1.813,3.808-2.37
		c2.789-0.983,5.231-0.889,7.341,0.289c2.103,1.178,3.916,2.984,5.441,5.412l11.409-4.039c-3.446-6.329-7.658-10.521-12.63-12.565
		c-4.972-2.059-10.138-2.139-15.499-0.246c-3.324,1.178-6.005,2.782-8.057,4.826c-2.059,2.038-3.692,4.488-4.906,7.356
		c-0.874,2.124-1.395,4.198-1.554,6.206c-0.166,2.009-0.058,4.112,0.333,6.308c0.382,2.182,0.975,4.523,1.762,7.016
		c0.788,2.493,1.72,5.26,2.797,8.316c1.091,3.049,2.103,5.788,3.057,8.23c0.946,2.421,1.965,4.61,3.034,6.562
		c1.076,1.936,2.312,3.641,3.714,5.108c1.387,1.466,3.085,2.746,5.108,3.859c2.738,1.459,5.564,2.334,8.439,2.623
		c2.876,0.304,5.976-0.145,9.3-1.316c5.362-1.892,9.328-5.202,11.901-9.921c2.579-4.726,3.215-10.636,1.915-17.724L292.049,258.207z
		"/>
	<polygon class="st0" points="338.084,204.6 334.139,193.451 293.075,207.974 297.02,219.116 311.97,213.841 330.67,266.705 
		341.842,262.759 323.134,209.882 	"/>
	<polygon class="st0" points="373.092,239.145 367.594,223.603 390.167,215.612 386.222,204.469 363.642,212.454 358.33,197.431 
		384.849,188.059 380.911,176.903 343.222,190.242 365.867,254.255 403.549,240.923 399.611,229.767 	"/>
	<path class="st0" d="M442.055,183.154c-0.824-2.175-1.669-4.14-2.536-5.889c-0.853-1.756-1.814-3.302-2.854-4.653
		c-1.055-1.344-2.247-2.558-3.598-3.635c-3.179-2.522-6.424-4.032-9.748-4.537c-3.316-0.52-6.922-0.087-10.832,1.3l-20.658,7.305
		l22.652,64.02l20.651-7.312c3.902-1.38,6.994-3.316,9.242-5.802c2.262-2.478,3.83-5.701,4.718-9.654
		c0.376-1.683,0.542-3.382,0.512-5.087c-0.035-1.705-0.26-3.526-0.7-5.427c-0.426-1.892-1.012-3.959-1.727-6.156
		c-0.73-2.211-1.546-4.638-2.478-7.276C443.768,187.72,442.886,185.315,442.055,183.154z M437.178,212.035
		c-0.94,3.302-3.266,5.607-6.959,6.908l-8.512,3.013l-14.762-41.714l8.52-3.013c3.692-1.308,6.944-0.968,9.754,0.997
		c0.788,0.535,1.496,1.185,2.103,1.988c0.614,0.794,1.228,1.813,1.85,3.042c0.608,1.236,1.272,2.753,1.973,4.559
		c0.701,1.814,1.496,3.968,2.377,6.496c0.896,2.514,1.633,4.69,2.24,6.54c0.585,1.85,1.018,3.446,1.322,4.79
		c0.303,1.344,0.462,2.522,0.484,3.526C437.596,210.171,437.459,211.124,437.178,212.035z"/>
</g>
</svg>